

Release info:

General
Format                                   : Matroska
Format version                           : Version 2
File size                                : 1.49 GiB
Duration                                 : 1h 31mn
Overall bit rate                         : 2 333 Kbps

Video
ID                                       : 1
Format                                   : AVC
Format/Info                              : Advanced Video Codec
Format profile                           : Baseline@L4.0
Format settings, CABAC                   : No
Format settings, ReFrames                : 1 frame
Format settings, GOP                     : M=1, N=12
Muxing mode                              : Header stripping
Codec ID                                 : V_MPEG4/ISO/AVC
Duration                                 : 1h 31mn
Bit rate                                 : 2 031 Kbps
Width                                    : 1 920 pixels
Height                                   : 1 080 pixels
Display aspect ratio                     : 16:9
Frame rate mode                          : Constant
Frame rate                               : 23.976 fps
Color space                              : YUV
Chroma subsampling                       : 4:2:0
Bit depth                                : 8 bits
Scan type                                : Progressive
Bits/(Pixel*Frame)                       : 0.041
Stream size                              : 1.29 GiB (87%)
Language                                 : English
Default                                  : Yes
Forced                                   : No

Audio #1
ID                                       : 2
Format                                   : AC-3
Format/Info                              : Audio Coding 3
Mode extension                           : CM (complete main)
Format settings, Endianness              : Big
Muxing mode                              : Header stripping
Codec ID                                 : A_AC3
Duration                                 : 1h 31mn
Bit rate mode                            : Constant
Bit rate                                 : 128 Kbps
Channel(s)                               : 6 channels
Channel positions                        : Front: L C R, Side: L R, LFE
Sampling rate                            : 48.0 KHz
Bit depth                                : 16 bits
Compression mode                         : Lossy
Delay relative to video                  : 750ms
Stream size                              : 83.5 MiB (5%)
Language                                 : Hindi
Default                                  : No
Forced                                   : No

Audio #2
ID                                       : 3
Format                                   : AC-3
Format/Info                              : Audio Coding 3
Mode extension                           : CM (complete main)
Format settings, Endianness              : Big
Muxing mode                              : Header stripping
Codec ID                                 : A_AC3
Duration                                 : 1h 31mn
Bit rate mode                            : Constant
Bit rate                                 : 128 Kbps
Channel(s)                               : 2 channels
Channel positions                        : Front: L R
Sampling rate                            : 44.1 KHz
Bit depth                                : 16 bits
Compression mode                         : Lossy
Stream size                              : 83.5 MiB (5%)
Language                                 : English
Default                                  : No
Forced                                   : No



Source:
credit to original movie ripper W4F (Thanks)

IMDB Info:

The heroic story of a dictator who risks his life to ensure that democracy would never come to the country he so lovingly oppressed.

Director: Larry Charles
Writers: Sacha Baron Cohen, Alec Berg, 
Stars: Sacha Baron Cohen, Anna Faris and Ben Kingsley

Genres: Comedy
 
http://www.imdb.com/title/tt1645170/

Screen Shot:
 
http://www.shotpix.com/images/37401104757333928765.png 
http://www.shotpix.com/images/44296147685504541879.png 
http://www.shotpix.com/images/97548812411505857401.png 
http://www.shotpix.com/images/08914433084253378430.png 
http://www.shotpix.com/images/94592393775697964899.png 
http://www.shotpix.com/images/01298798637932087088.png